<mxfile host="65bd71144e">
    <diagram name="Page-1" id="8NoAi405iV9w-lXr4pfd">
        <mxGraphModel dx="1562" dy="809" grid="1" gridSize="10" guides="1" tooltips="1" connect="1" arrows="1" fold="1" page="1" pageScale="1" pageWidth="850" pageHeight="1100" background="none" math="0" shadow="0">
            <root>
                <mxCell id="0"/>
                <mxCell id="1" parent="0"/>
                <mxCell id="285" value="" style="ellipse;whiteSpace=wrap;html=1;fontSize=10;fillColor=#4D4D4D;fontColor=#ffffff;strokeColor=#1A7633;movable=0;resizable=0;rotatable=0;deletable=0;editable=0;connectable=0;" parent="1" vertex="1">
                    <mxGeometry x="51.08" y="50" width="670" height="670" as="geometry"/>
                </mxCell>
                <mxCell id="212" value="&lt;b&gt;&lt;font style=&quot;background-color: rgb(204, 255, 255);&quot; color=&quot;#000000&quot;&gt;Router&lt;/font&gt;&lt;/b&gt;" style="sketch=0;pointerEvents=1;shadow=0;dashed=0;html=1;strokeColor=#001DBC;fillColor=#0050ef;labelPosition=center;verticalLabelPosition=bottom;verticalAlign=top;outlineConnect=0;align=center;shape=mxgraph.office.devices.router;fontColor=#ffffff;points=[[1,0.28,0,2,0],[1,0.45,0,2,0],[1,0.61,0,2,0],[1,0.78,0,2,0],[1,0.95,0,2,0]];" parent="1" vertex="1">
                    <mxGeometry x="344.56999999999994" y="238.00000000000006" width="55" height="56" as="geometry"/>
                </mxCell>
                <mxCell id="213" value="&lt;div style=&quot;&quot;&gt;&lt;b style=&quot;background-color: rgb(204, 255, 255);&quot;&gt;Internet&lt;/b&gt;&lt;/div&gt;" style="aspect=fixed;perimeter=ellipsePerimeter;html=1;align=center;shadow=0;dashed=0;spacingTop=3;image;image=img/lib/active_directory/internet_globe.svg;labelPosition=center;verticalLabelPosition=top;verticalAlign=bottom;" parent="1" vertex="1">
                    <mxGeometry x="340.26" y="108" width="63.63" height="63.63" as="geometry"/>
                </mxCell>
                <mxCell id="218" style="edgeStyle=none;html=1;startArrow=classic;startFill=1;strokeColor=#000000;strokeWidth=2;" parent="1" edge="1">
                    <mxGeometry relative="1" as="geometry">
                        <mxPoint x="370" y="180" as="targetPoint"/>
                        <mxPoint x="370" y="230" as="sourcePoint"/>
                    </mxGeometry>
                </mxCell>
                <mxCell id="256" value="&lt;font style=&quot;font-size: 10px;&quot;&gt;HTTPS&lt;/font&gt;" style="edgeLabel;html=1;align=center;verticalAlign=middle;resizable=0;points=[];fontSize=17;" parent="218" vertex="1" connectable="0">
                    <mxGeometry relative="1" as="geometry">
                        <mxPoint as="offset"/>
                    </mxGeometry>
                </mxCell>
                <mxCell id="220" value="&lt;b style=&quot;background-color: rgb(204, 255, 255);&quot;&gt;Users&lt;/b&gt;" style="sketch=0;pointerEvents=1;shadow=0;dashed=0;html=1;strokeColor=none;labelPosition=center;verticalLabelPosition=bottom;verticalAlign=top;outlineConnect=0;align=center;shape=mxgraph.office.users.users;fillColor=#2072B8;fontSize=13;" parent="1" vertex="1">
                    <mxGeometry x="178.44" y="237.54" width="58.36" height="56.46" as="geometry"/>
                </mxCell>
                <mxCell id="228" style="edgeStyle=none;html=1;startArrow=classic;startFill=1;strokeColor=#000000;fontSize=17;strokeWidth=2;" parent="1" edge="1">
                    <mxGeometry relative="1" as="geometry">
                        <mxPoint x="330" y="266" as="targetPoint"/>
                        <mxPoint x="250" y="266" as="sourcePoint"/>
                    </mxGeometry>
                </mxCell>
                <mxCell id="255" value="&lt;font style=&quot;font-size: 10px;&quot;&gt;HTTP&lt;/font&gt;" style="edgeLabel;html=1;align=center;verticalAlign=middle;resizable=0;points=[];fontSize=17;" parent="228" vertex="1" connectable="0">
                    <mxGeometry relative="1" as="geometry">
                        <mxPoint as="offset"/>
                    </mxGeometry>
                </mxCell>
                <mxCell id="232" style="edgeStyle=none;html=1;startArrow=classic;startFill=1;strokeColor=#000000;strokeWidth=2;" parent="1" edge="1">
                    <mxGeometry relative="1" as="geometry">
                        <mxPoint x="412" y="268" as="targetPoint"/>
                        <mxPoint x="492" y="268" as="sourcePoint"/>
                    </mxGeometry>
                </mxCell>
                <mxCell id="259" value="&lt;font style=&quot;font-size: 10px;&quot;&gt;HTTP&lt;/font&gt;" style="edgeLabel;html=1;align=center;verticalAlign=middle;resizable=0;points=[];fontSize=17;" parent="232" vertex="1" connectable="0">
                    <mxGeometry relative="1" as="geometry">
                        <mxPoint as="offset"/>
                    </mxGeometry>
                </mxCell>
                <mxCell id="245" value="&lt;b style=&quot;background-color: rgb(204, 255, 255);&quot;&gt;VM-3&lt;br&gt;Media-Wiki-1&lt;/b&gt;" style="sketch=0;pointerEvents=1;shadow=0;dashed=0;html=1;strokeColor=none;labelPosition=center;verticalLabelPosition=bottom;verticalAlign=top;outlineConnect=0;align=center;shape=mxgraph.office.servers.physical_host;fillColor=#2072B8;fontSize=13;" parent="1" vertex="1">
                    <mxGeometry x="466" y="338" width="60" height="52" as="geometry"/>
                </mxCell>
                <mxCell id="247" value="&lt;b style=&quot;background-color: rgb(204, 255, 255);&quot;&gt;VM-4&lt;br&gt;Media-Wiki-2&lt;/b&gt;" style="sketch=0;pointerEvents=1;shadow=0;dashed=0;html=1;strokeColor=none;labelPosition=center;verticalLabelPosition=bottom;verticalAlign=top;outlineConnect=0;align=center;shape=mxgraph.office.servers.physical_host;fillColor=#2072B8;fontSize=13;" parent="1" vertex="1">
                    <mxGeometry x="556" y="338" width="60" height="52" as="geometry"/>
                </mxCell>
                <mxCell id="248" style="edgeStyle=none;html=1;startArrow=classic;startFill=1;strokeColor=#000000;strokeWidth=2;" parent="1" source="235" target="245" edge="1">
                    <mxGeometry relative="1" as="geometry">
                        <mxPoint x="416" y="278" as="targetPoint"/>
                        <mxPoint x="476" y="298" as="sourcePoint"/>
                    </mxGeometry>
                </mxCell>
                <mxCell id="249" style="edgeStyle=none;html=1;startArrow=classic;startFill=1;strokeColor=#000000;strokeWidth=2;" parent="1" source="235" target="247" edge="1">
                    <mxGeometry relative="1" as="geometry">
                        <mxPoint x="488.80263016061235" y="438" as="targetPoint"/>
                        <mxPoint x="503.1973698393879" y="304.46000000000004" as="sourcePoint"/>
                    </mxGeometry>
                </mxCell>
                <mxCell id="235" value="&lt;b style=&quot;background-color: rgb(204, 255, 255);&quot;&gt;VM-2&lt;br&gt;Proxy-server&lt;/b&gt;" style="sketch=0;pointerEvents=1;shadow=0;dashed=0;html=1;strokeColor=none;labelPosition=center;verticalLabelPosition=top;verticalAlign=bottom;outlineConnect=0;align=center;shape=mxgraph.office.servers.physical_host;fillColor=#2072B8;fontSize=13;" parent="1" vertex="1">
                    <mxGeometry x="506" y="242" width="60" height="52" as="geometry"/>
                </mxCell>
                <mxCell id="254" value="&lt;b style=&quot;background-color: rgb(204, 255, 255);&quot;&gt;VHDD-3&lt;br&gt;db_dump&lt;/b&gt;" style="verticalLabelPosition=bottom;html=1;verticalAlign=top;align=center;strokeColor=none;fillColor=#00BEF2;shape=mxgraph.azure.vhd;pointerEvents=1;" parent="1" vertex="1">
                    <mxGeometry x="199.24373983739838" y="542.0024" width="37.5609756097561" height="48" as="geometry"/>
                </mxCell>
                <mxCell id="262" value="" style="group" parent="1" vertex="1" connectable="0">
                    <mxGeometry x="305.89" y="478" width="98" height="64" as="geometry"/>
                </mxCell>
                <mxCell id="238" value="&lt;b style=&quot;background-color: rgb(204, 255, 255);&quot;&gt;VM-4&lt;br&gt;PostgreSQL-Primary&lt;/b&gt;" style="aspect=fixed;html=1;points=[];align=center;image;fontSize=12;image=img/lib/azure2/databases/Azure_Database_PostgreSQL_Server.svg;imageBackground=none;labelBackgroundColor=none;" parent="262" vertex="1">
                    <mxGeometry x="50" width="48" height="64" as="geometry"/>
                </mxCell>
                <mxCell id="203" value="&lt;b style=&quot;background-color: rgb(204, 255, 255);&quot;&gt;VSSD - 1&lt;/b&gt;" style="shadow=0;dashed=0;html=1;strokeColor=none;fillColor=#4495D1;labelPosition=center;verticalLabelPosition=bottom;verticalAlign=top;align=center;outlineConnect=0;shape=mxgraph.veeam.2d.hard_drive;" parent="262" vertex="1">
                    <mxGeometry y="8" width="40" height="48" as="geometry"/>
                </mxCell>
                <mxCell id="265" style="edgeStyle=none;html=1;startArrow=classic;startFill=1;strokeColor=#000000;strokeWidth=2;" parent="1" edge="1">
                    <mxGeometry relative="1" as="geometry">
                        <mxPoint x="560" y="480" as="targetPoint"/>
                        <mxPoint x="570" y="438" as="sourcePoint"/>
                    </mxGeometry>
                </mxCell>
                <mxCell id="267" value="" style="group" parent="1" vertex="1" connectable="0">
                    <mxGeometry x="307.53373983739834" y="590" width="96.35626016260164" height="64" as="geometry"/>
                </mxCell>
                <mxCell id="50" value="&lt;b style=&quot;background-color: rgb(204, 255, 255);&quot;&gt;VHDD-2&lt;/b&gt;" style="verticalLabelPosition=bottom;html=1;verticalAlign=top;align=center;strokeColor=none;fillColor=#00BEF2;shape=mxgraph.azure.vhd;pointerEvents=1;" parent="267" vertex="1">
                    <mxGeometry y="8.002399999999966" width="37.5609756097561" height="48" as="geometry"/>
                </mxCell>
                <mxCell id="252" value="&lt;b style=&quot;background-color: rgb(204, 255, 255);&quot;&gt;VM-5&lt;br&gt;PostgreSQL-Standby&lt;/b&gt;" style="aspect=fixed;html=1;points=[];align=center;image;fontSize=12;image=img/lib/azure2/databases/Azure_Database_PostgreSQL_Server.svg;imageBackground=none;labelBackgroundColor=none;" parent="267" vertex="1">
                    <mxGeometry x="48.35626016260164" width="48" height="64" as="geometry"/>
                </mxCell>
                <mxCell id="268" value="" style="group" parent="1" vertex="1" connectable="0">
                    <mxGeometry x="256.00373983739837" y="348" width="107.76626016260161" height="52.00239999999994" as="geometry"/>
                </mxCell>
                <mxCell id="242" value="&lt;b style=&quot;background-color: rgb(204, 255, 255);&quot;&gt;VM-1&lt;br&gt;Monitoring system&lt;/b&gt;" style="sketch=0;pointerEvents=1;shadow=0;dashed=0;html=1;strokeColor=none;labelPosition=center;verticalLabelPosition=bottom;verticalAlign=top;outlineConnect=0;align=center;shape=mxgraph.office.servers.physical_host;fillColor=#2072B8;fontSize=13;" parent="268" vertex="1">
                    <mxGeometry x="47.76626016260161" width="60" height="52" as="geometry"/>
                </mxCell>
                <mxCell id="253" value="&lt;b style=&quot;background-color: rgb(204, 255, 255);&quot;&gt;VHDD-1&lt;/b&gt;" style="verticalLabelPosition=bottom;html=1;verticalAlign=top;align=center;strokeColor=none;fillColor=#00BEF2;shape=mxgraph.azure.vhd;pointerEvents=1;" parent="268" vertex="1">
                    <mxGeometry y="4.002399999999938" width="37.5609756097561" height="48" as="geometry"/>
                </mxCell>
                <mxCell id="269" style="edgeStyle=none;html=1;startArrow=classic;startFill=1;strokeColor=#000000;strokeWidth=2;" parent="1" edge="1">
                    <mxGeometry relative="1" as="geometry">
                        <mxPoint x="426" y="528" as="targetPoint"/>
                        <mxPoint x="486" y="528" as="sourcePoint"/>
                    </mxGeometry>
                </mxCell>
                <mxCell id="270" style="edgeStyle=none;html=1;startArrow=classic;startFill=1;strokeColor=#000000;strokeWidth=2;" parent="1" edge="1">
                    <mxGeometry relative="1" as="geometry">
                        <mxPoint x="250" y="590" as="targetPoint"/>
                        <mxPoint x="296.8" y="621.8" as="sourcePoint"/>
                    </mxGeometry>
                </mxCell>
                <mxCell id="277" value="" style="endArrow=none;html=1;rounded=0;strokeColor=#000000;strokeWidth=2;fontSize=17;" parent="1" edge="1">
                    <mxGeometry width="50" height="50" relative="1" as="geometry">
                        <mxPoint x="326" y="468" as="sourcePoint"/>
                        <mxPoint x="326" y="448" as="targetPoint"/>
                    </mxGeometry>
                </mxCell>
                <mxCell id="278" value="" style="endArrow=none;html=1;rounded=0;strokeColor=#000000;strokeWidth=2;fontSize=17;" parent="1" edge="1">
                    <mxGeometry width="50" height="50" relative="1" as="geometry">
                        <mxPoint x="416" y="448" as="sourcePoint"/>
                        <mxPoint x="396" y="438" as="targetPoint"/>
                    </mxGeometry>
                </mxCell>
                <mxCell id="279" value="" style="endArrow=none;html=1;rounded=0;strokeColor=#000000;strokeWidth=2;fontSize=17;" parent="1" edge="1">
                    <mxGeometry width="50" height="50" relative="1" as="geometry">
                        <mxPoint x="406" y="368" as="sourcePoint"/>
                        <mxPoint x="386" y="368" as="targetPoint"/>
                    </mxGeometry>
                </mxCell>
                <mxCell id="280" value="" style="endArrow=none;html=1;rounded=0;strokeColor=#000000;strokeWidth=2;fontSize=17;" parent="1" edge="1">
                    <mxGeometry width="50" height="50" relative="1" as="geometry">
                        <mxPoint x="396" y="338" as="sourcePoint"/>
                        <mxPoint x="379.57" y="348" as="targetPoint"/>
                    </mxGeometry>
                </mxCell>
                <mxCell id="287" value="" style="ellipse;shape=cloud;whiteSpace=wrap;html=1;fillColor=#ffe6cc;strokeColor=#d79b00;gradientColor=#CCFFCC;" vertex="1" parent="1">
                    <mxGeometry x="174.31" y="87.53999999999999" width="170.26" height="150" as="geometry"/>
                </mxCell>
                <mxCell id="286" value="&lt;b style=&quot;background-color: rgb(204, 255, 255);&quot;&gt;VM-0&lt;br&gt;Service VM&lt;br&gt;&lt;/b&gt;" style="sketch=0;pointerEvents=1;shadow=0;dashed=0;html=1;strokeColor=none;labelPosition=center;verticalLabelPosition=top;verticalAlign=bottom;outlineConnect=0;align=center;shape=mxgraph.office.servers.physical_host;fillColor=#2072B8;fontSize=13;" vertex="1" parent="1">
                    <mxGeometry x="229.44" y="150" width="60" height="52" as="geometry"/>
                </mxCell>
                <mxCell id="289" value="&lt;b style=&quot;background-color: rgb(204, 255, 255);&quot;&gt;VM-5&lt;br&gt;Proxy-server&lt;/b&gt;" style="sketch=0;pointerEvents=1;shadow=0;dashed=0;html=1;strokeColor=none;labelPosition=center;verticalLabelPosition=bottom;verticalAlign=top;outlineConnect=0;align=center;shape=mxgraph.office.servers.physical_host;fillColor=#2072B8;fontSize=13;" vertex="1" parent="1">
                    <mxGeometry x="506" y="490" width="60" height="52" as="geometry"/>
                </mxCell>
                <mxCell id="290" style="edgeStyle=none;html=1;startArrow=classic;startFill=1;strokeColor=#000000;strokeWidth=2;" edge="1" parent="1">
                    <mxGeometry relative="1" as="geometry">
                        <mxPoint x="519" y="480" as="targetPoint"/>
                        <mxPoint x="513" y="438" as="sourcePoint"/>
                    </mxGeometry>
                </mxCell>
                <mxCell id="291" style="edgeStyle=none;html=1;startArrow=classic;startFill=1;strokeColor=#000000;strokeWidth=2;" edge="1" parent="1">
                    <mxGeometry relative="1" as="geometry">
                        <mxPoint x="460" y="581" as="targetPoint"/>
                        <mxPoint x="496" y="551" as="sourcePoint"/>
                    </mxGeometry>
                </mxCell>
            </root>
        </mxGraphModel>
    </diagram>
</mxfile>